<?xml version="1.0" encoding="utf-8"?>
<!-- Generator: Adobe Illustrator 23.0.0, SVG Export Plug-In . SVG Version: 6.00 Build 0)  -->
<svg version="1.1" id="Слой_1" xmlns="http://www.w3.org/2000/svg" xmlns:xlink="http://www.w3.org/1999/xlink" x="0px" y="0px"
	 viewBox="0 0 300 300" style="enable-background:new 0 0 300 300;" xml:space="preserve">
<style type="text/css">
	.st0{fill:url(#SVGID_1_);stroke:#FFFFFF;stroke-miterlimit:10;}
	.st1{fill:none;stroke:#FFFFFF;stroke-miterlimit:10;}
	.st2{fill:url(#SVGID_2_);stroke:#FFFFFF;stroke-miterlimit:10;}
	.st3{fill:url(#SVGID_3_);stroke:#FFFFFF;stroke-miterlimit:10;}
	.st4{fill:url(#SVGID_4_);stroke:#FFFFFF;stroke-miterlimit:10;}
	.st5{fill:url(#SVGID_5_);stroke:#FFFFFF;stroke-miterlimit:10;}
	.st6{fill:url(#SVGID_6_);stroke:#FFFFFF;stroke-miterlimit:10;}
	.st7{fill:url(#SVGID_7_);stroke:#FFFFFF;stroke-miterlimit:10;}
	.st8{fill:#FFFFFF;stroke:#FFFFFF;stroke-miterlimit:10;}
	.st9{fill:url(#SVGID_8_);stroke:#FFFFFF;stroke-miterlimit:10;}
	.st10{fill:url(#SVGID_9_);stroke:#FFFFFF;stroke-miterlimit:10;}
	.st11{fill:url(#SVGID_10_);stroke:#FFFFFF;stroke-miterlimit:10;}
</style>
<linearGradient id="SVGID_1_" gradientUnits="userSpaceOnUse" x1="150.05" y1="260.46" x2="150.05" y2="175.67">
	<stop  offset="0" style="stop-color:#FE330A"/>
	<stop  offset="0.0767" style="stop-color:#FF4A0A"/>
	<stop  offset="0.2375" style="stop-color:#FF850A"/>
	<stop  offset="0.4674" style="stop-color:#FFE206"/>
	<stop  offset="0.5354" style="stop-color:#FFFF00"/>
</linearGradient>
<path class="st0" d="M191.78,251.6c-12.72,5.7-26.81,8.86-41.65,8.86c-14.9,0-29.05-3.19-41.81-8.93
	c23.74-17.36,39.7-44.7,41.68-75.86C151.99,206.87,167.99,234.25,191.78,251.6z"/>
<path class="st1" d="M252.24,158.36c0,41.55-24.83,77.31-60.46,93.24c-23.79-17.35-39.79-44.73-41.78-75.93
	c-1.98,31.16-17.94,58.5-41.68,75.86c-35.54-15.97-60.29-51.68-60.29-93.17c0-4.36,0.27-8.65,0.81-12.87
	c0.22-1.78,0.49-3.55,0.81-5.31c0.14-0.78,0.29-1.55,0.44-2.33c0.04-0.18,0.08-0.37,0.12-0.56c0.34-1.64,0.72-3.27,1.15-4.89
	c0.01-0.03,0.02-0.05,0.02-0.08c0.22-0.83,0.45-1.65,0.68-2.46c0.25-0.85,0.5-1.69,0.77-2.52c0.27-0.83,0.54-1.66,0.83-2.49
	c0.28-0.82,0.58-1.64,0.89-2.46c0.01-0.03,0.02-0.07,0.04-0.11c0.29-0.76,0.58-1.52,0.89-2.27c0.01-0.03,0.02-0.06,0.04-0.09
	c0.31-0.79,0.65-1.57,0.99-2.36c0.69-1.58,1.42-3.15,2.19-4.7c0.33-0.65,0.66-1.29,1-1.93c0.3-0.59,0.62-1.18,0.95-1.76
	c0.08-0.16,0.17-0.32,0.26-0.48c0.37-0.67,0.74-1.33,1.14-1.98c0.62-1.07,1.26-2.13,1.93-3.17c0.45-0.72,0.92-1.42,1.39-2.12
	c0.14-0.22,0.29-0.43,0.45-0.65c0.39-0.59,0.8-1.17,1.21-1.74c0.14-0.2,0.29-0.41,0.44-0.61c0.39-0.55,0.79-1.09,1.2-1.62
	c0.2-0.27,0.4-0.53,0.61-0.79c0.32-0.43,0.65-0.85,0.98-1.26c0.26-0.32,0.51-0.64,0.77-0.95c0.28-0.35,0.57-0.7,0.87-1.05
	c0.35-0.42,0.7-0.83,1.06-1.24c1.31-1.52,2.68-3.01,4.1-4.45c0.47-0.5,0.96-0.99,1.46-1.48c0.56-0.55,1.13-1.09,1.7-1.63
	c0.38-0.36,0.76-0.71,1.14-1.06c0.43-0.4,0.86-0.78,1.3-1.16c0.54-0.48,1.09-0.96,1.65-1.42c0.43-0.37,0.86-0.72,1.29-1.07
	c0.43-0.36,0.87-0.71,1.31-1.05c0.99-0.79,1.99-1.55,3-2.29c0.07-0.05,0.13-0.1,0.2-0.14c13.57-9.89,29.66-16.51,47.14-18.71
	c8.08,10.6,12.88,23.84,12.88,38.21c0-14.36,4.8-27.6,12.88-38.2c17.48,2.19,33.58,8.81,47.15,18.7c0.03,0.03,0.06,0.05,0.09,0.07
	c0.6,0.44,1.19,0.88,1.78,1.33c0.65,0.49,1.29,1,1.93,1.51c0.28,0.23,0.57,0.46,0.85,0.69c1.11,0.91,2.2,1.84,3.27,2.8
	c0.3,0.26,0.6,0.53,0.89,0.8c0.26,0.23,0.53,0.48,0.79,0.73c0.37,0.33,0.73,0.67,1.08,1.02c0.47,0.44,0.93,0.89,1.39,1.35
	c0.37,0.37,0.74,0.75,1.11,1.13c0.08,0.08,0.16,0.16,0.23,0.24c0.27,0.28,0.54,0.56,0.81,0.85c0.41,0.43,0.81,0.86,1.21,1.3
	c0.63,0.69,1.25,1.39,1.86,2.09c0.14,0.16,0.28,0.32,0.41,0.48c0.54,0.63,1.06,1.26,1.58,1.9c0.55,0.68,1.1,1.37,1.63,2.06
	c0.16,0.2,0.32,0.41,0.46,0.61c0.29,0.37,0.57,0.75,0.84,1.12c0.82,1.1,1.6,2.21,2.36,3.34c0.53,0.78,1.06,1.58,1.57,2.38
	c0.52,0.81,1.02,1.62,1.51,2.44c0.35,0.59,0.7,1.19,1.04,1.78c0.16,0.29,0.32,0.57,0.48,0.86c0.16,0.28,0.31,0.54,0.45,0.81
	c0.27,0.48,0.53,0.97,0.79,1.47c1.16,2.2,2.24,4.45,3.23,6.74c0.27,0.59,0.52,1.19,0.76,1.79c0.07,0.15,0.13,0.31,0.19,0.47
	c0.06,0.13,0.11,0.25,0.16,0.38c0.26,0.64,0.51,1.29,0.76,1.94c0.01,0.04,0.02,0.08,0.04,0.11c0.31,0.82,0.6,1.64,0.89,2.47
	c0.29,0.82,0.56,1.65,0.83,2.49c0.27,0.83,0.52,1.67,0.77,2.52c0.24,0.84,0.48,1.69,0.7,2.55c0.22,0.82,0.42,1.65,0.62,2.48
	c0.03,0.13,0.06,0.26,0.09,0.39c0.38,1.62,0.72,3.26,1.01,4.92c0.16,0.88,0.3,1.76,0.44,2.64c0.13,0.89,0.26,1.78,0.37,2.67
	C251.97,149.7,252.24,154,252.24,158.36z"/>
<path class="st1" d="M210.19,75.86c1.97,6.11,3.04,12.63,3.04,19.4c0,23.36-12.69,43.75-31.55,54.66
	c-9.47-5.48-17.38-13.34-22.91-22.77c-5.49-9.36-8.64-20.26-8.64-31.89c0-14.36,4.8-27.6,12.88-38.2
	c5.05-6.65,11.4-12.25,18.67-16.46c13.36,7.73,23.63,20.22,28.48,35.16C210.17,75.79,210.18,75.83,210.19,75.86z"/>
<path class="st1" d="M236.3,103.56c0.26,0.4,0.52,0.81,0.77,1.22c-0.75-1.22-1.53-2.42-2.34-3.6
	C235.26,101.96,235.79,102.76,236.3,103.56z"/>
<path class="st1" d="M150.13,95.26c0,11.74-3.2,22.73-8.79,32.14c-5.52,9.32-13.38,17.09-22.76,22.52
	c-18.86-10.91-31.55-31.3-31.55-54.66c0-6.73,1.05-13.22,3.01-19.3c0.02-0.07,0.04-0.13,0.07-0.2
	c4.84-14.94,15.11-27.42,28.47-35.16c7.26,4.2,13.61,9.81,18.67,16.45C145.33,67.65,150.13,80.89,150.13,95.26z"/>
<linearGradient id="SVGID_2_" gradientUnits="userSpaceOnUse" x1="113.9295" y1="67.0904" x2="105.9596" y2="45.1934">
	<stop  offset="0" style="stop-color:#46017D"/>
	<stop  offset="7.380247e-03" style="stop-color:#4C0B7B"/>
	<stop  offset="0.0477" style="stop-color:#692B74"/>
	<stop  offset="0.0931" style="stop-color:#875069"/>
	<stop  offset="0.1419" style="stop-color:#A3745B"/>
	<stop  offset="0.195" style="stop-color:#BC964B"/>
	<stop  offset="0.2537" style="stop-color:#D1B439"/>
	<stop  offset="0.32" style="stop-color:#E2CE27"/>
	<stop  offset="0.3974" style="stop-color:#EFE418"/>
	<stop  offset="0.4931" style="stop-color:#F8F30F"/>
	<stop  offset="0.6274" style="stop-color:#FEFC06"/>
	<stop  offset="1" style="stop-color:#FFFF00"/>
</linearGradient>
<path class="st2" d="M137.25,57.05c-17.48,2.2-33.57,8.82-47.14,18.71c4.84-14.94,15.11-27.42,28.47-35.16
	C125.84,44.8,132.19,50.41,137.25,57.05z"/>
<linearGradient id="SVGID_3_" gradientUnits="userSpaceOnUse" x1="150.13" y1="92.225" x2="90.04" y2="92.225">
	<stop  offset="0" style="stop-color:#46017D"/>
	<stop  offset="0.4635" style="stop-color:#581486"/>
	<stop  offset="1" style="stop-color:#713094"/>
</linearGradient>
<path class="st3" d="M150.13,95.26c0,11.74-3.2,22.73-8.79,32.14c-10.2-22.8-28.53-41.17-51.3-51.44c0.02-0.07,0.04-0.13,0.07-0.2
	c13.57-9.89,29.66-16.51,47.14-18.71C145.33,67.65,150.13,80.89,150.13,95.26z"/>
<path class="st1" d="M141.34,127.4c-5.52,9.32-13.38,17.09-22.76,22.52c-18.86-10.91-31.55-31.3-31.55-54.66
	c0-6.73,1.05-13.22,3.01-19.3C112.81,86.23,131.14,104.6,141.34,127.4z"/>
<linearGradient id="SVGID_4_" gradientUnits="userSpaceOnUse" x1="186.3377" y1="67.0894" x2="194.3064" y2="45.1956">
	<stop  offset="0" style="stop-color:#46017D"/>
	<stop  offset="7.380247e-03" style="stop-color:#4C0B7B"/>
	<stop  offset="0.0477" style="stop-color:#692B74"/>
	<stop  offset="0.0931" style="stop-color:#875069"/>
	<stop  offset="0.1419" style="stop-color:#A3745B"/>
	<stop  offset="0.195" style="stop-color:#BC964B"/>
	<stop  offset="0.2537" style="stop-color:#D1B439"/>
	<stop  offset="0.32" style="stop-color:#E2CE27"/>
	<stop  offset="0.3974" style="stop-color:#EFE418"/>
	<stop  offset="0.4931" style="stop-color:#F8F30F"/>
	<stop  offset="0.6274" style="stop-color:#FEFC06"/>
	<stop  offset="1" style="stop-color:#FFFF00"/>
</linearGradient>
<path class="st4" d="M210.16,75.76c-13.57-9.89-29.67-16.51-47.15-18.7c5.05-6.65,11.4-12.25,18.67-16.46
	C195.04,48.33,205.31,60.82,210.16,75.76z"/>
<linearGradient id="SVGID_5_" gradientUnits="userSpaceOnUse" x1="150.13" y1="92.105" x2="210.1899" y2="92.105">
	<stop  offset="0" style="stop-color:#46017D"/>
	<stop  offset="0.4635" style="stop-color:#581486"/>
	<stop  offset="1" style="stop-color:#713094"/>
</linearGradient>
<path class="st5" d="M210.19,75.86c-22.79,10.21-41.15,28.53-51.42,51.29c-5.49-9.36-8.64-20.26-8.64-31.89
	c0-14.36,4.8-27.6,12.88-38.2c17.48,2.19,33.58,8.81,47.15,18.7C210.17,75.79,210.18,75.83,210.19,75.86z"/>
<path class="st1" d="M213.23,95.26c0,23.36-12.69,43.75-31.55,54.66c-9.47-5.48-17.38-13.34-22.91-22.77
	c10.27-22.76,28.63-41.08,51.42-51.29C212.16,81.97,213.23,88.49,213.23,95.26z"/>
<linearGradient id="SVGID_6_" gradientUnits="userSpaceOnUse" x1="216.5549" y1="158.36" x2="216.5549" y2="75.83">
	<stop  offset="0" style="stop-color:#46017D"/>
	<stop  offset="0.0331" style="stop-color:#4A097F"/>
	<stop  offset="0.2134" style="stop-color:#5F1D8A"/>
	<stop  offset="0.37" style="stop-color:#6C2B91"/>
	<stop  offset="0.4844" style="stop-color:#713094"/>
</linearGradient>
<path class="st6" d="M251.43,145.48c-10.6,8.09-23.84,12.88-38.2,12.88c-11.49,0-22.27-3.07-31.55-8.44
	c18.86-10.91,31.55-31.3,31.55-54.66c0-6.77-1.07-13.29-3.04-19.4c0.02-0.01,0.04-0.02,0.06-0.03c0.6,0.44,1.19,0.88,1.78,1.33
	c0.65,0.49,1.29,1,1.93,1.51c0.28,0.23,0.57,0.46,0.85,0.69c0.13,0.1,0.26,0.21,0.38,0.31c0.43,0.36,0.85,0.71,1.27,1.07
	c0.54,0.47,1.08,0.94,1.62,1.42c0.3,0.26,0.6,0.53,0.89,0.8c0.26,0.23,0.53,0.48,0.79,0.73c0.37,0.33,0.73,0.67,1.08,1.02
	c0.47,0.44,0.93,0.89,1.39,1.35c0.37,0.37,0.74,0.75,1.11,1.13c0.08,0.08,0.16,0.16,0.23,0.24c0.27,0.28,0.54,0.56,0.81,0.85
	c0.41,0.43,0.81,0.86,1.21,1.3c0.63,0.69,1.25,1.39,1.86,2.09c0.14,0.16,0.28,0.32,0.41,0.48c0.54,0.63,1.06,1.26,1.58,1.9
	c0.55,0.68,1.1,1.37,1.63,2.06c0.16,0.2,0.32,0.41,0.46,0.61c0.29,0.37,0.57,0.75,0.84,1.12c0.82,1.1,1.6,2.21,2.36,3.34
	c0.53,0.78,1.06,1.58,1.57,2.38c0.26,0.4,0.52,0.81,0.77,1.22c0.25,0.4,0.49,0.81,0.74,1.22c0.35,0.59,0.7,1.19,1.04,1.78
	c0.16,0.29,0.32,0.57,0.48,0.86c0.16,0.28,0.31,0.54,0.45,0.81c0.27,0.48,0.53,0.97,0.79,1.47c0.31,0.59,0.62,1.18,0.91,1.78
	c0.17,0.33,0.34,0.66,0.5,1c0.24,0.5,0.48,1,0.71,1.51c0.05,0.09,0.1,0.18,0.13,0.28c0.31,0.65,0.6,1.3,0.89,1.97
	c0.03,0.07,0.06,0.13,0.09,0.2c0.01,0.03,0.03,0.07,0.04,0.1c0.15,0.33,0.29,0.66,0.44,1c0.16,0.38,0.32,0.77,0.47,1.16
	c0.32,0.77,0.62,1.54,0.92,2.32c0.01,0.04,0.02,0.08,0.04,0.11c0.31,0.82,0.6,1.64,0.89,2.47c0.29,0.82,0.56,1.65,0.83,2.49
	c0.27,0.83,0.52,1.67,0.77,2.52c0.2,0.69,0.39,1.39,0.58,2.1c0.04,0.15,0.08,0.3,0.12,0.45c0.22,0.82,0.42,1.65,0.62,2.48
	c0.03,0.13,0.06,0.26,0.09,0.39c0.38,1.62,0.71,3.26,1.01,4.92c0.16,0.88,0.3,1.76,0.44,2.64
	C251.19,143.7,251.32,144.59,251.43,145.48z"/>
<linearGradient id="SVGID_7_" gradientUnits="userSpaceOnUse" x1="201.015" y1="251.6" x2="201.015" y2="127.15">
	<stop  offset="0" style="stop-color:#FE330A"/>
	<stop  offset="0.0315" style="stop-color:#E72C19"/>
	<stop  offset="0.0997" style="stop-color:#B92037"/>
	<stop  offset="0.1682" style="stop-color:#94154E"/>
	<stop  offset="0.2355" style="stop-color:#78105F"/>
	<stop  offset="0.3016" style="stop-color:#620B6C"/>
	<stop  offset="0.366" style="stop-color:#540775"/>
	<stop  offset="0.4278" style="stop-color:#4B037B"/>
	<stop  offset="0.4844" style="stop-color:#48017D"/>
</linearGradient>
<path class="st7" d="M252.24,158.36c0,41.55-24.83,77.31-60.46,93.24c-23.79-17.35-39.79-44.73-41.78-75.93
	c-0.14-2.18-0.21-4.37-0.21-6.59c0-2.16,0.07-4.31,0.21-6.44c0.08-1.44,0.2-2.86,0.35-4.28c1.15-11.02,4.05-21.52,8.42-31.21
	c5.53,9.43,13.44,17.29,22.91,22.77c9.28,5.37,20.06,8.44,31.55,8.44c14.36,0,27.6-4.79,38.2-12.88
	C251.97,149.7,252.24,154,252.24,158.36z"/>
<path class="st8" d="M213.23,95.26c0,23.36-12.69,43.75-31.55,54.66c-9.47-5.48-17.38-13.34-22.91-22.77
	c10.27-22.76,28.63-41.08,51.42-51.29C212.16,81.97,213.23,88.49,213.23,95.26z"/>
<linearGradient id="SVGID_8_" gradientUnits="userSpaceOnUse" x1="83.7101" y1="158.36" x2="83.7101" y2="75.9">
	<stop  offset="0" style="stop-color:#46017D"/>
	<stop  offset="0.0331" style="stop-color:#4A097F"/>
	<stop  offset="0.2134" style="stop-color:#5F1D8A"/>
	<stop  offset="0.37" style="stop-color:#6C2B91"/>
	<stop  offset="0.4844" style="stop-color:#713094"/>
</linearGradient>
<path class="st9" d="M118.58,149.92c-9.28,5.37-20.06,8.44-31.55,8.44c-14.35,0-27.59-4.79-38.19-12.87
	c0.67-5.35,1.76-10.57,3.22-15.63c0.25-0.85,0.5-1.69,0.77-2.52c0.26-0.83,0.54-1.66,0.83-2.49c0.28-0.82,0.58-1.64,0.89-2.46
	c0.01-0.03,0.02-0.07,0.04-0.11c0.29-0.76,0.58-1.52,0.89-2.27c0.04-0.11,0.08-0.21,0.13-0.32c0.29-0.71,0.59-1.42,0.9-2.13
	c1.06-2.43,2.21-4.81,3.46-7.14c0.2-0.4,0.41-0.79,0.64-1.18c0.46-0.85,0.94-1.7,1.44-2.53c0.28-0.48,0.57-0.97,0.86-1.45
	c0.08-0.15,0.17-0.29,0.26-0.43c0.26-0.43,0.53-0.86,0.81-1.29c0.79-1.23,1.6-2.45,2.44-3.65c0.2-0.29,0.4-0.57,0.61-0.86
	c0.17-0.25,0.36-0.5,0.55-0.75c0.3-0.43,0.61-0.85,0.93-1.26c0.81-1.09,1.65-2.17,2.52-3.22c0.26-0.33,0.53-0.65,0.81-0.98
	c0.71-0.85,1.43-1.69,2.17-2.51c0.32-0.36,0.64-0.71,0.96-1.05c0.91-1,1.85-1.98,2.81-2.94c0.23-0.23,0.46-0.46,0.69-0.69
	c1.36-1.34,2.75-2.64,4.19-3.9c0.39-0.34,0.78-0.68,1.17-1.02c0.58-0.5,1.17-0.99,1.77-1.47c0.43-0.36,0.87-0.71,1.31-1.05
	c0.44-0.35,0.89-0.7,1.33-1.04c0.55-0.42,1.11-0.84,1.67-1.25c0.04,0.02,0.09,0.04,0.13,0.06c-1.96,6.08-3.01,12.57-3.01,19.3
	C87.03,118.62,99.72,139.01,118.58,149.92z"/>
<linearGradient id="SVGID_9_" gradientUnits="userSpaceOnUse" x1="150.0551" y1="162.64" x2="150.0551" y2="95.26">
	<stop  offset="0.2299" style="stop-color:#FE330A"/>
	<stop  offset="1" style="stop-color:#FFFF00"/>
</linearGradient>
<path class="st10" d="M158.77,127.15c-4.37,9.69-7.27,20.19-8.42,31.21c-0.15,1.42-0.27,2.84-0.35,4.28
	c-0.08-1.44-0.2-2.87-0.35-4.29c-1.14-10.92-4-21.33-8.31-30.95c5.59-9.41,8.79-20.4,8.79-32.14
	C150.13,106.89,153.28,117.79,158.77,127.15z"/>
<linearGradient id="SVGID_10_" gradientUnits="userSpaceOnUse" x1="99.12" y1="251.53" x2="99.12" y2="127.4">
	<stop  offset="0" style="stop-color:#FE330A"/>
	<stop  offset="0.0315" style="stop-color:#E72C19"/>
	<stop  offset="0.0997" style="stop-color:#B92037"/>
	<stop  offset="0.1682" style="stop-color:#94154E"/>
	<stop  offset="0.2355" style="stop-color:#78105F"/>
	<stop  offset="0.3016" style="stop-color:#620B6C"/>
	<stop  offset="0.366" style="stop-color:#540775"/>
	<stop  offset="0.4278" style="stop-color:#4B037B"/>
	<stop  offset="0.4844" style="stop-color:#48017D"/>
</linearGradient>
<path class="st11" d="M150.21,169.08c0,2.22-0.07,4.41-0.21,6.59c-1.98,31.16-17.94,58.5-41.68,75.86
	c-35.54-15.97-60.29-51.68-60.29-93.17c0-4.36,0.27-8.65,0.81-12.87c10.6,8.08,23.84,12.87,38.19,12.87
	c11.49,0,22.27-3.07,31.55-8.44c9.38-5.43,17.24-13.2,22.76-22.52c4.31,9.62,7.17,20.03,8.31,30.95c0.15,1.42,0.27,2.85,0.35,4.29
	C150.14,164.77,150.21,166.92,150.21,169.08z"/>
<path class="st8" d="M141.34,127.4c-5.52,9.32-13.38,17.09-22.76,22.52c-18.86-10.91-31.55-31.3-31.55-54.66
	c0-6.73,1.05-13.22,3.01-19.3C112.81,86.23,131.14,104.6,141.34,127.4z"/>
</svg>
